<svg width="459" height="173" viewBox="0 0 459 173" fill="none" xmlns="http://www.w3.org/2000/svg">
<path d="M427.226 0H404.521V87.1584H458.244V68.6052H427.226V0Z" fill="#053283"/>
<path d="M90.2871 0.285156L0 127.074H27.7619L92.007 36.8624V75.8516L76.0907 75.872L60.7342 97.3156L92.007 97.2952V127.074H124.745V0.285156H92.007H90.2871Z" fill="#053283"/>
<path d="M224.567 51.2732H254.731V33.4426H224.567V18.5532H256.563V0H201.863V87.1584H257.662V68.6052H224.567V51.2732Z" fill="#053283"/>
<path d="M359.458 51.2732H389.622V33.4426H359.458V18.5532H391.454V0H336.754V87.1584H392.553V68.6052H359.458V51.2732Z" fill="#053283"/>
<path d="M161.32 0H138.616V87.1584H192.338V68.6052H161.32V0Z" fill="#053283"/>
<path d="M296.11 65.6741H295.866L286.717 0H262.914L281.343 87.1584H310.632L329.438 0H305.269L296.11 65.6741Z" fill="#053283"/>
<rect x="138.59" y="95.3389" width="319.658" height="32.0898" fill="#053283"/>
<path d="M381.525 104.928V101.372H394.619V104.152C393.538 105.214 392.439 106.74 391.321 108.73C390.204 110.719 389.35 112.835 388.76 115.079C388.178 117.313 387.892 119.312 387.901 121.074H384.209C384.273 118.313 384.84 115.497 385.912 112.626C386.993 109.756 388.433 107.19 390.231 104.928H381.525Z" fill="white"/>
<path d="M377.806 117.518V121.074H364.386C364.531 119.729 364.967 118.458 365.694 117.259C366.42 116.051 367.856 114.452 369.999 112.463C371.725 110.855 372.783 109.765 373.174 109.193C373.701 108.402 373.964 107.621 373.964 106.849C373.964 105.995 373.733 105.341 373.269 104.887C372.815 104.424 372.184 104.192 371.375 104.192C370.576 104.192 369.94 104.433 369.468 104.914C368.996 105.396 368.723 106.195 368.65 107.312L364.835 106.931C365.062 104.824 365.776 103.311 366.975 102.394C368.174 101.476 369.672 101.018 371.471 101.018C373.442 101.018 374.991 101.549 376.117 102.612C377.243 103.674 377.806 104.996 377.806 106.577C377.806 107.476 377.643 108.334 377.316 109.152C376.998 109.96 376.489 110.809 375.79 111.7C375.327 112.29 374.491 113.139 373.283 114.248C372.075 115.356 371.307 116.091 370.98 116.455C370.662 116.818 370.403 117.172 370.204 117.518H377.806Z" fill="white"/>
<path d="M354.699 101.018C356.634 101.018 358.146 101.708 359.236 103.089C360.535 104.724 361.184 107.435 361.184 111.223C361.184 115.001 360.53 117.717 359.222 119.371C358.142 120.733 356.634 121.414 354.699 121.414C352.755 121.414 351.188 120.67 349.998 119.18C348.808 117.681 348.213 115.015 348.213 111.182C348.213 107.421 348.867 104.715 350.175 103.061C351.256 101.699 352.764 101.018 354.699 101.018ZM354.699 104.192C354.236 104.192 353.822 104.342 353.459 104.642C353.096 104.933 352.814 105.459 352.614 106.222C352.351 107.212 352.219 108.879 352.219 111.223C352.219 113.566 352.337 115.179 352.573 116.06C352.81 116.932 353.105 117.513 353.459 117.804C353.822 118.094 354.236 118.24 354.699 118.24C355.162 118.24 355.575 118.094 355.939 117.804C356.302 117.504 356.584 116.973 356.784 116.21C357.047 115.229 357.179 113.566 357.179 111.223C357.179 108.879 357.061 107.271 356.824 106.399C356.588 105.518 356.289 104.933 355.925 104.642C355.571 104.342 355.162 104.192 354.699 104.192Z" fill="white"/>
<path d="M344.509 117.518V121.074H331.088C331.233 119.729 331.669 118.458 332.396 117.259C333.123 116.051 334.558 114.452 336.701 112.463C338.427 110.855 339.485 109.765 339.876 109.193C340.403 108.402 340.666 107.621 340.666 106.849C340.666 105.995 340.435 105.341 339.971 104.887C339.517 104.424 338.886 104.192 338.078 104.192C337.278 104.192 336.642 104.433 336.17 104.914C335.698 105.396 335.425 106.195 335.353 107.312L331.538 106.931C331.765 104.824 332.478 103.311 333.677 102.394C334.876 101.476 336.374 101.018 338.173 101.018C340.144 101.018 341.693 101.549 342.819 102.612C343.945 103.674 344.509 104.996 344.509 106.577C344.509 107.476 344.345 108.334 344.018 109.152C343.7 109.96 343.192 110.809 342.492 111.7C342.029 112.29 341.193 113.139 339.985 114.248C338.777 115.356 338.009 116.091 337.682 116.455C337.365 116.818 337.106 117.172 336.906 117.518H344.509Z" fill="white"/>
<path d="M294.93 121.074V101.1H309.74V104.479H298.963V108.907H308.991V112.272H298.963V117.709H310.122V121.074H294.93Z" fill="white"/>
<path d="M273.689 121.074V101.1H277.613L285.788 114.439V101.1H289.535V121.074H285.488L277.436 108.048V121.074H273.689Z" fill="white"/>
<path d="M264.644 121.074V101.1H268.677V121.074H264.644Z" fill="white"/>
<path d="M246.7 121.074V101.263H250.733V117.708H260.761V121.074H246.7Z" fill="white"/>
<path d="M225.351 121.074V101.1H229.275L237.45 114.439V101.1H241.197V121.074H237.15L229.098 108.048V121.074H225.351Z" fill="white"/>
<path d="M201.658 111.211C201.658 109.177 201.962 107.469 202.571 106.088C203.025 105.071 203.642 104.158 204.424 103.35C205.214 102.541 206.077 101.942 207.012 101.551C208.257 101.024 209.692 100.761 211.318 100.761C214.261 100.761 216.614 101.674 218.376 103.499C220.147 105.325 221.033 107.864 221.033 111.116C221.033 114.34 220.156 116.866 218.403 118.691C216.65 120.508 214.306 121.416 211.372 121.416C208.402 121.416 206.04 120.513 204.287 118.705C202.534 116.888 201.658 114.39 201.658 111.211ZM205.813 111.075C205.813 113.337 206.336 115.053 207.38 116.225C208.425 117.388 209.751 117.969 211.359 117.969C212.967 117.969 214.284 117.392 215.31 116.239C216.346 115.076 216.863 113.337 216.863 111.02C216.863 108.731 216.359 107.024 215.351 105.897C214.352 104.771 213.021 104.208 211.359 104.208C209.697 104.208 208.357 104.78 207.339 105.925C206.322 107.06 205.813 108.777 205.813 111.075Z" fill="white"/>
<path d="M164.217 140.906C164.599 140.963 165.067 141.011 165.621 141.049C166.175 141.087 166.671 141.106 167.111 141.106H182.639C183.078 141.106 183.546 141.087 184.043 141.049C184.54 141.011 185.008 140.963 185.447 140.906V145.662C184.988 145.623 184.511 145.595 184.014 145.576C183.518 145.538 183.059 145.518 182.639 145.518H167.111C166.671 145.518 166.175 145.538 165.621 145.576C165.067 145.595 164.599 145.623 164.217 145.662V140.906ZM172.153 159.013V143.542H177.024V159.013H172.153ZM162.326 156.119C162.804 156.195 163.3 156.262 163.816 156.32C164.351 156.358 164.847 156.377 165.306 156.377H184.186C184.74 156.377 185.256 156.348 185.733 156.291C186.23 156.234 186.66 156.176 187.023 156.119V161.133C186.602 161.075 186.115 161.037 185.561 161.018C185.008 160.999 184.549 160.99 184.186 160.99H165.306C164.866 160.99 164.379 160.999 163.845 161.018C163.329 161.037 162.823 161.075 162.326 161.133V156.119ZM197.279 139.044C197.68 139.101 198.187 139.149 198.798 139.187C199.428 139.206 199.992 139.215 200.488 139.215C200.87 139.215 201.434 139.215 202.178 139.215C202.943 139.215 203.773 139.215 204.671 139.215C205.588 139.215 206.495 139.215 207.393 139.215C208.291 139.215 209.093 139.215 209.799 139.215C210.506 139.215 211.022 139.215 211.347 139.215C211.805 139.215 212.378 139.206 213.066 139.187C213.753 139.149 214.307 139.101 214.727 139.044V143.513C214.326 143.475 213.791 143.446 213.123 143.427C212.454 143.408 211.843 143.398 211.289 143.398C210.984 143.398 210.468 143.398 209.742 143.398C209.035 143.398 208.224 143.398 207.307 143.398C206.409 143.398 205.502 143.398 204.585 143.398C203.687 143.398 202.866 143.398 202.121 143.398C201.395 143.398 200.851 143.398 200.488 143.398C200.011 143.398 199.466 143.408 198.855 143.427C198.244 143.446 197.719 143.475 197.279 143.513V139.044ZM217.334 147.81C217.22 148.021 217.096 148.259 216.962 148.527C216.847 148.794 216.761 149.014 216.704 149.186C216.227 150.561 215.663 151.917 215.014 153.254C214.364 154.572 213.505 155.823 212.435 157.007C211.022 158.592 209.417 159.91 207.622 160.961C205.846 162.011 204.041 162.804 202.207 163.339L198.74 159.414C200.975 158.936 202.914 158.258 204.556 157.38C206.218 156.501 207.565 155.546 208.596 154.515C209.303 153.808 209.857 153.101 210.258 152.394C210.678 151.688 211.012 151.01 211.261 150.36C211.05 150.36 210.707 150.36 210.229 150.36C209.771 150.36 209.217 150.36 208.567 150.36C207.918 150.36 207.221 150.36 206.476 150.36C205.731 150.36 204.958 150.36 204.155 150.36C203.372 150.36 202.608 150.36 201.863 150.36C201.138 150.36 200.459 150.36 199.829 150.36C199.199 150.36 198.664 150.36 198.225 150.36C197.862 150.36 197.327 150.37 196.62 150.389C195.914 150.408 195.236 150.446 194.586 150.504V146.034C195.255 146.091 195.904 146.139 196.534 146.177C197.184 146.216 197.747 146.235 198.225 146.235C198.549 146.235 198.998 146.235 199.571 146.235C200.144 146.235 200.794 146.235 201.52 146.235C202.245 146.235 203.009 146.235 203.812 146.235C204.633 146.235 205.445 146.235 206.247 146.235C207.068 146.235 207.842 146.235 208.567 146.235C209.312 146.235 209.962 146.235 210.516 146.235C211.089 146.235 211.538 146.235 211.862 146.235C212.416 146.235 212.894 146.206 213.295 146.149C213.715 146.072 214.04 145.986 214.269 145.891L217.334 147.81ZM242.26 141.278C242.547 141.698 242.852 142.185 243.177 142.739C243.521 143.293 243.845 143.847 244.151 144.401C244.476 144.955 244.743 145.452 244.953 145.891L241.888 147.209C241.582 146.54 241.296 145.958 241.028 145.461C240.78 144.945 240.522 144.458 240.255 144C239.987 143.522 239.662 143.026 239.28 142.51L242.26 141.278ZM246.185 139.645C246.491 140.046 246.815 140.524 247.159 141.078C247.503 141.612 247.837 142.147 248.162 142.682C248.487 143.217 248.754 143.694 248.964 144.115L245.985 145.547C245.66 144.879 245.354 144.306 245.068 143.828C244.8 143.331 244.523 142.864 244.237 142.424C243.95 141.966 243.616 141.488 243.234 140.992L246.185 139.645ZM222.377 152.882C222.835 152.5 223.255 152.137 223.637 151.793C224.019 151.43 224.449 151.01 224.927 150.532C225.251 150.208 225.614 149.816 226.015 149.358C226.417 148.899 226.856 148.393 227.333 147.839C227.811 147.266 228.298 146.674 228.794 146.063C229.31 145.432 229.826 144.812 230.342 144.201C231.239 143.131 232.175 142.548 233.149 142.453C234.143 142.338 235.231 142.844 236.415 143.971C237.103 144.602 237.781 145.261 238.45 145.948C239.118 146.617 239.767 147.285 240.398 147.954C241.047 148.622 241.658 149.272 242.231 149.902C242.881 150.59 243.616 151.373 244.437 152.251C245.259 153.13 246.099 154.028 246.959 154.944C247.818 155.861 248.611 156.711 249.337 157.494L245.498 161.62C244.886 160.837 244.227 160.015 243.521 159.156C242.833 158.277 242.155 157.427 241.487 156.606C240.818 155.766 240.216 155.03 239.682 154.4C239.261 153.884 238.803 153.349 238.306 152.796C237.81 152.223 237.323 151.669 236.845 151.134C236.368 150.58 235.928 150.093 235.527 149.673C235.126 149.233 234.811 148.89 234.582 148.641C234.162 148.221 233.78 148.021 233.436 148.04C233.111 148.059 232.767 148.307 232.404 148.785C232.156 149.109 231.86 149.51 231.516 149.988C231.192 150.446 230.848 150.933 230.485 151.449C230.122 151.965 229.769 152.471 229.425 152.967C229.081 153.464 228.775 153.903 228.508 154.285C228.164 154.782 227.82 155.288 227.477 155.804C227.133 156.32 226.827 156.787 226.56 157.208L222.377 152.882ZM266.383 160.732C266.46 160.426 266.517 160.063 266.555 159.643C266.613 159.223 266.641 158.793 266.641 158.354C266.641 158.125 266.641 157.704 266.641 157.093C266.641 156.463 266.641 155.718 266.641 154.858C266.641 153.98 266.641 153.034 266.641 152.022C266.641 151.01 266.641 149.988 266.641 148.956C266.641 147.925 266.641 146.951 266.641 146.034C266.641 145.098 266.641 144.267 266.641 143.542C266.641 142.816 266.641 142.271 266.641 141.909C266.641 141.202 266.594 140.581 266.498 140.046C266.422 139.511 266.383 139.244 266.383 139.244H271.541C271.541 139.244 271.502 139.521 271.426 140.075C271.35 140.61 271.311 141.23 271.311 141.937C271.311 142.3 271.311 142.787 271.311 143.398C271.311 144.01 271.311 144.697 271.311 145.461C271.311 146.225 271.311 147.027 271.311 147.868C271.311 148.708 271.311 149.539 271.311 150.36C271.311 151.182 271.311 151.965 271.311 152.71C271.311 153.455 271.311 154.113 271.311 154.686C271.311 155.259 271.311 155.708 271.311 156.033C272.037 155.727 272.772 155.307 273.517 154.772C274.262 154.238 274.988 153.617 275.695 152.91C276.421 152.184 277.08 151.401 277.672 150.561L280.336 154.4C279.572 155.374 278.627 156.358 277.5 157.351C276.392 158.344 275.236 159.261 274.033 160.101C272.849 160.923 271.722 161.61 270.652 162.164C270.309 162.355 270.032 162.527 269.822 162.68C269.611 162.852 269.43 162.995 269.277 163.11L266.383 160.732ZM253.033 160.159C254.331 159.261 255.363 158.191 256.127 156.95C256.91 155.708 257.483 154.524 257.846 153.397C258.056 152.805 258.209 152.06 258.304 151.163C258.419 150.265 258.505 149.3 258.562 148.269C258.619 147.218 258.648 146.168 258.648 145.117C258.667 144.067 258.677 143.093 258.677 142.195C258.677 141.527 258.648 140.963 258.591 140.505C258.533 140.046 258.457 139.626 258.361 139.244H263.461C263.461 139.244 263.442 139.397 263.404 139.702C263.366 139.989 263.327 140.352 263.289 140.791C263.251 141.23 263.232 141.679 263.232 142.138C263.232 143.016 263.222 144.019 263.203 145.146C263.184 146.273 263.146 147.419 263.089 148.584C263.031 149.749 262.945 150.857 262.831 151.907C262.735 152.939 262.592 153.817 262.401 154.543C261.962 156.205 261.303 157.743 260.424 159.156C259.565 160.569 258.514 161.839 257.273 162.966L253.033 160.159ZM302.97 138.127C302.893 138.604 302.836 139.139 302.798 139.731C302.779 140.304 302.779 140.839 302.798 141.336C302.817 142.271 302.836 143.236 302.855 144.229C302.874 145.203 302.893 146.206 302.912 147.237C302.951 148.269 302.979 149.31 302.998 150.36C303.037 151.392 303.065 152.433 303.084 153.483C303.103 154.515 303.123 155.546 303.142 156.577C303.161 157.609 303.18 158.631 303.199 159.643C303.218 160.655 302.932 161.448 302.339 162.021C301.766 162.594 300.869 162.88 299.646 162.88C298.71 162.88 297.832 162.861 297.01 162.823C296.189 162.804 295.339 162.766 294.461 162.709L294.06 158.21C294.69 158.306 295.349 158.382 296.036 158.44C296.724 158.497 297.297 158.526 297.755 158.526C298.08 158.526 298.319 158.43 298.472 158.239C298.624 158.048 298.701 157.743 298.701 157.322C298.701 156.673 298.701 155.966 298.701 155.202C298.701 154.419 298.691 153.588 298.672 152.71C298.672 151.831 298.663 150.924 298.644 149.988C298.644 149.052 298.624 148.097 298.586 147.123C298.567 146.149 298.539 145.175 298.5 144.201C298.481 143.226 298.443 142.271 298.386 141.336C298.348 140.667 298.3 140.075 298.242 139.559C298.204 139.024 298.147 138.547 298.071 138.127H302.97ZM286.066 142.768C286.467 142.825 287.012 142.883 287.699 142.94C288.406 142.978 289.017 142.997 289.533 142.997C289.858 142.997 290.364 142.997 291.051 142.997C291.758 142.997 292.579 142.997 293.515 142.997C294.451 142.997 295.435 142.997 296.466 142.997C297.517 142.997 298.548 142.997 299.56 142.997C300.592 142.997 301.547 142.997 302.425 142.997C303.304 142.997 304.049 142.997 304.66 142.997C305.271 142.997 305.672 142.997 305.863 142.997C306.379 142.997 306.962 142.969 307.611 142.911C308.26 142.854 308.767 142.797 309.13 142.739V147.295C308.614 147.276 308.079 147.266 307.525 147.266C306.99 147.247 306.522 147.237 306.121 147.237C305.968 147.237 305.586 147.237 304.975 147.237C304.364 147.237 303.6 147.237 302.683 147.237C301.786 147.237 300.802 147.237 299.732 147.237C298.682 147.237 297.612 147.237 296.523 147.237C295.454 147.237 294.442 147.237 293.487 147.237C292.532 147.237 291.71 147.237 291.023 147.237C290.354 147.237 289.896 147.237 289.647 147.237C289.113 147.237 288.511 147.247 287.842 147.266C287.193 147.285 286.601 147.314 286.066 147.352V142.768ZM284.261 156.549C285.751 155.861 287.155 155.097 288.473 154.257C289.81 153.416 291.032 152.547 292.14 151.65C293.248 150.752 294.222 149.854 295.062 148.956C295.903 148.04 296.581 147.171 297.096 146.349L299.36 146.378L299.388 150.074C298.796 150.952 298.051 151.86 297.154 152.796C296.275 153.712 295.301 154.62 294.231 155.517C293.181 156.415 292.073 157.265 290.908 158.067C289.743 158.85 288.587 159.547 287.441 160.159L284.261 156.549ZM320.761 139.158C321.258 139.502 321.841 139.932 322.509 140.447C323.178 140.944 323.865 141.488 324.572 142.08C325.298 142.653 325.976 143.226 326.606 143.799C327.256 144.353 327.79 144.859 328.211 145.318L324.658 148.956C324.276 148.536 323.789 148.049 323.197 147.495C322.605 146.922 321.965 146.34 321.277 145.748C320.59 145.136 319.912 144.563 319.243 144.029C318.575 143.494 317.982 143.045 317.467 142.682L320.761 139.158ZM316.521 158.182C317.935 157.991 319.272 157.723 320.532 157.38C321.812 157.036 323.015 156.635 324.142 156.176C325.269 155.718 326.301 155.221 327.236 154.686C328.955 153.693 330.522 152.566 331.935 151.306C333.348 150.026 334.58 148.699 335.631 147.323C336.701 145.929 337.55 144.563 338.181 143.226L340.874 148.126C340.11 149.482 339.164 150.819 338.038 152.137C336.911 153.435 335.64 154.667 334.227 155.832C332.833 156.998 331.333 158.048 329.729 158.984C328.755 159.557 327.704 160.101 326.577 160.617C325.451 161.114 324.285 161.543 323.082 161.906C321.879 162.288 320.676 162.575 319.472 162.766L316.521 158.182ZM350.558 139.044C350.959 139.101 351.465 139.149 352.076 139.187C352.706 139.206 353.27 139.215 353.766 139.215C354.148 139.215 354.712 139.215 355.457 139.215C356.221 139.215 357.052 139.215 357.949 139.215C358.866 139.215 359.773 139.215 360.671 139.215C361.569 139.215 362.371 139.215 363.078 139.215C363.784 139.215 364.3 139.215 364.625 139.215C365.083 139.215 365.656 139.206 366.344 139.187C367.031 139.149 367.585 139.101 368.006 139.044V143.513C367.604 143.475 367.07 143.446 366.401 143.427C365.733 143.408 365.121 143.398 364.568 143.398C364.262 143.398 363.746 143.398 363.02 143.398C362.314 143.398 361.502 143.398 360.585 143.398C359.687 143.398 358.78 143.398 357.863 143.398C356.966 143.398 356.144 143.398 355.4 143.398C354.674 143.398 354.129 143.398 353.766 143.398C353.289 143.398 352.745 143.408 352.133 143.427C351.522 143.446 350.997 143.475 350.558 143.513V139.044ZM370.613 147.81C370.498 148.021 370.374 148.259 370.24 148.527C370.126 148.794 370.04 149.014 369.982 149.186C369.505 150.561 368.941 151.917 368.292 153.254C367.643 154.572 366.783 155.823 365.714 157.007C364.3 158.592 362.696 159.91 360.9 160.961C359.124 162.011 357.319 162.804 355.485 163.339L352.019 159.414C354.254 158.936 356.192 158.258 357.835 157.38C359.496 156.501 360.843 155.546 361.874 154.515C362.581 153.808 363.135 153.101 363.536 152.394C363.956 151.688 364.291 151.01 364.539 150.36C364.329 150.36 363.985 150.36 363.508 150.36C363.049 150.36 362.495 150.36 361.846 150.36C361.196 150.36 360.499 150.36 359.754 150.36C359.009 150.36 358.236 150.36 357.434 150.36C356.651 150.36 355.887 150.36 355.142 150.36C354.416 150.36 353.738 150.36 353.108 150.36C352.477 150.36 351.942 150.36 351.503 150.36C351.14 150.36 350.605 150.37 349.899 150.389C349.192 150.408 348.514 150.446 347.865 150.504V146.034C348.533 146.091 349.182 146.139 349.813 146.177C350.462 146.216 351.026 146.235 351.503 146.235C351.828 146.235 352.277 146.235 352.85 146.235C353.423 146.235 354.072 146.235 354.798 146.235C355.524 146.235 356.288 146.235 357.09 146.235C357.911 146.235 358.723 146.235 359.525 146.235C360.346 146.235 361.12 146.235 361.846 146.235C362.591 146.235 363.24 146.235 363.794 146.235C364.367 146.235 364.816 146.235 365.141 146.235C365.694 146.235 366.172 146.206 366.573 146.149C366.993 146.072 367.318 145.986 367.547 145.891L370.613 147.81ZM376.343 149.816C378.96 149.147 381.299 148.383 383.362 147.524C385.425 146.664 387.259 145.748 388.863 144.774C389.837 144.181 390.84 143.475 391.871 142.653C392.903 141.832 393.877 140.992 394.793 140.132C395.71 139.254 396.465 138.451 397.057 137.726L400.81 141.307C399.912 142.185 398.91 143.083 397.802 144C396.713 144.898 395.577 145.757 394.392 146.578C393.227 147.4 392.081 148.145 390.954 148.813C389.847 149.444 388.615 150.093 387.259 150.761C385.902 151.43 384.47 152.06 382.961 152.652C381.471 153.244 379.981 153.76 378.492 154.199L376.343 149.816ZM388.175 147.008L393.16 145.92V158.726C393.16 159.185 393.17 159.691 393.189 160.245C393.208 160.779 393.237 161.286 393.275 161.763C393.313 162.241 393.371 162.613 393.447 162.88H387.946C387.984 162.613 388.023 162.241 388.061 161.763C388.099 161.286 388.128 160.779 388.147 160.245C388.166 159.691 388.175 159.185 388.175 158.726V147.008ZM412.728 139.158C413.225 139.502 413.808 139.932 414.476 140.447C415.145 140.944 415.832 141.488 416.539 142.08C417.265 142.653 417.943 143.226 418.573 143.799C419.223 144.353 419.757 144.859 420.178 145.318L416.625 148.956C416.243 148.536 415.756 148.049 415.164 147.495C414.572 146.922 413.932 146.34 413.244 145.748C412.557 145.136 411.879 144.563 411.21 144.029C410.542 143.494 409.949 143.045 409.434 142.682L412.728 139.158ZM408.488 158.182C409.902 157.991 411.239 157.723 412.499 157.38C413.779 157.036 414.982 156.635 416.109 156.176C417.236 155.718 418.268 155.221 419.203 154.686C420.922 153.693 422.489 152.566 423.902 151.306C425.315 150.026 426.547 148.699 427.598 147.323C428.668 145.929 429.517 144.563 430.148 143.226L432.841 148.126C432.077 149.482 431.131 150.819 430.005 152.137C428.878 153.435 427.607 154.667 426.194 155.832C424.8 156.998 423.3 158.048 421.696 158.984C420.722 159.557 419.671 160.101 418.544 160.617C417.418 161.114 416.252 161.543 415.049 161.906C413.846 162.288 412.643 162.575 411.439 162.766L408.488 158.182Z" fill="#053283"/>
</svg>
