<svg width="312" height="26" viewBox="0 0 312 26" fill="none" xmlns="http://www.w3.org/2000/svg">
<path d="M5.40085 25.164H0.000851678L8.64085 0.323999H13.4649L22.1049 25.164H16.7409L15.2289 20.448H6.91285L5.40085 25.164ZM11.0529 7.452L8.24485 16.2H13.8609L11.0529 7.452ZM28.42 0.323999V20.916H38.86V25.164H23.38V0.323999H28.42ZM40.4407 0.323999H55.9207V4.608H45.4807V10.188H54.8407V14.436H45.4807V20.916H55.9207V25.164H40.4407V0.323999ZM56.005 0.323999H61.513L66.949 17.028L72.385 0.323999H77.893L69.253 25.164H64.681L56.005 0.323999ZM79.3783 0.323999H94.8583V4.608H84.4183V10.188H93.7783V14.436H84.4183V20.916H94.8583V25.164H79.3783V0.323999ZM102.323 0.323999V20.916H112.763V25.164H97.2827V0.323999H102.323ZM140.551 14.508C140.551 22.104 136.627 25.488 131.011 25.488C125.431 25.488 121.507 22.104 121.507 14.508V10.98C121.507 3.312 125.431 -7.15256e-07 131.011 -7.15256e-07C136.627 -7.15256e-07 140.551 3.312 140.551 10.98V14.508ZM126.547 10.98V14.508C126.547 19.26 128.095 21.24 131.011 21.24C133.927 21.24 135.511 19.26 135.511 14.508V10.98C135.511 6.228 133.927 4.248 131.011 4.248C128.095 4.248 126.547 6.228 126.547 10.98ZM157.509 0.323999H162.297V25.164H158.085L148.401 9.792V25.164H143.613V0.323999H147.789L157.509 15.912V0.323999ZM171.198 0.323999V20.916H181.638V25.164H166.158V0.323999H171.198ZM188.619 0.323999V25.164H183.579V0.323999H188.619ZM206.687 0.323999H211.475V25.164H207.263L197.579 9.792V25.164H192.791V0.323999H196.967L206.687 15.912V0.323999ZM215.336 0.323999H230.816V4.608H220.376V10.188H229.736V14.436H220.376V20.916H230.816V25.164H215.336V0.323999ZM255.884 20.916V25.164H240.548V21.924L248.864 12.132C250.412 10.332 251.168 8.82 251.168 7.2C251.168 5.184 249.692 4.176 248.072 4.176C246.38 4.176 245.12 5.22 244.976 7.2H240.512C240.512 2.916 244.04 -7.15256e-07 248.324 -7.15256e-07C252.788 -7.15256e-07 256.172 3.096 256.172 7.2C256.172 10.476 254.012 13.032 252.428 14.904L247.316 20.916H255.884ZM275.146 7.884V17.568C275.146 23.148 271.258 25.488 266.794 25.488C262.33 25.488 258.442 23.148 258.442 17.568V7.92C258.442 2.088 262.33 -7.15256e-07 266.794 -7.15256e-07C271.258 -7.15256e-07 275.146 2.088 275.146 7.884ZM270.106 8.352C270.106 5.688 269.026 4.248 266.794 4.248C264.526 4.248 263.446 5.688 263.446 8.352V17.136C263.446 19.8 264.526 21.24 266.794 21.24C269.026 21.24 270.106 19.8 270.106 17.136V8.352ZM292.607 20.916V25.164H277.271V21.924L285.587 12.132C287.135 10.332 287.891 8.82 287.891 7.2C287.891 5.184 286.415 4.176 284.795 4.176C283.103 4.176 281.843 5.22 281.699 7.2H277.235C277.235 2.916 280.763 -7.15256e-07 285.047 -7.15256e-07C289.511 -7.15256e-07 292.895 3.096 292.895 7.2C292.895 10.476 290.735 13.032 289.151 14.904L284.039 20.916H292.607ZM300.457 8.46H296.173V0.323999H311.365V3.852L304.201 25.164H298.981L306.181 4.608H300.457V8.46Z" fill="white"/>
</svg>
